<?xml version="1.0" standalone="no"?>
<!DOCTYPE svg PUBLIC "-//W3C//DTD SVG 20010904//EN"
 "http://www.w3.org/TR/2001/REC-SVG-20010904/DTD/svg10.dtd">
<svg version="1.0" xmlns="http://www.w3.org/2000/svg"
 width="96.000000pt" height="96.000000pt" viewBox="0 0 96.000000 96.000000"
 preserveAspectRatio="xMidYMid meet">

<g transform="translate(0.000000,96.000000) scale(0.100000,-0.100000)"
fill="#000000" stroke="none">
<path d="M383 912 l-93 -47 0 -52 c0 -29 -2 -53 -5 -53 -3 0 -24 10 -47 21
l-42 21 -98 -48 -98 -48 0 -101 0 -101 61 -30 61 -30 -61 -29 -61 -29 0 -102
0 -102 94 -50 95 -50 97 50 98 50 43 -21 43 -21 2 -72 2 -73 5 73 6 73 83 44
c52 27 85 39 87 31 2 -6 3 -47 2 -91 l-2 -79 -40 -23 c-50 -28 -38 -30 15 -3
38 19 40 23 40 65 0 25 2 45 5 45 2 0 25 -10 51 -22 l46 -23 94 50 94 50 0
101 0 100 -60 29 c-33 16 -60 32 -60 35 0 4 27 22 60 39 l60 32 0 93 c0 76 -3
96 -17 108 -21 19 -158 88 -173 88 -6 0 -30 -9 -52 -20 -23 -11 -43 -20 -45
-20 -2 0 -3 21 -3 48 l0 47 -94 48 c-51 26 -95 47 -97 46 -2 0 -46 -21 -96
-47z m10 -105 l78 -42 2 -93 c1 -50 0 -91 -3 -89 -3 1 -42 21 -87 45 l-83 42
0 90 c0 50 3 90 8 90 4 0 42 -19 85 -43z m267 -1 c0 -41 -2 -44 -45 -67 -44
-23 -45 -25 -45 -71 0 -45 -2 -49 -40 -68 l-40 -20 0 92 0 93 78 42 c42 23 80
42 85 42 4 1 7 -19 7 -43z m100 -261 c0 -70 -1 -75 -24 -81 -23 -5 -144 47
-147 64 -3 19 -6 168 -3 173 2 4 42 -14 89 -38 l85 -44 0 -74z m188 68 l-3
-88 -64 -34 c-53 -28 -67 -32 -87 -22 -22 10 -24 16 -24 80 l0 69 78 41 c42
22 83 41 90 41 10 0 12 -21 10 -87z m-848 37 l80 -40 0 -94 0 -93 -85 44 -85
44 0 90 c0 49 2 89 5 89 3 0 41 -18 85 -40z m235 -7 c36 -17 36 -17 33 -76
l-3 -58 -82 -44 -83 -44 0 95 0 94 48 24 c26 14 48 25 49 26 1 0 18 -8 38 -17z
m100 -55 l45 -22 44 22 45 21 3 -45 c3 -46 4 -47 65 -78 34 -17 63 -34 63 -37
0 -3 -27 -18 -60 -34 l-60 -29 0 -48 c0 -26 -2 -48 -5 -48 -2 0 -25 10 -50 22
l-45 22 -50 -21 -50 -21 0 47 c0 47 0 48 -51 71 -28 13 -52 28 -55 32 -3 4 20
20 50 35 l56 27 0 53 c0 29 2 53 5 53 2 0 25 -10 50 -22z m-255 -395 l0 -93
-85 42 -85 42 0 93 0 93 85 -42 85 -42 0 -93z m190 84 l0 -93 -85 -42 -85 -42
0 93 0 93 83 41 c45 23 83 42 85 42 1 1 2 -41 2 -92z m313 48 l77 -40 0 -92 0
-93 -45 22 c-44 22 -45 23 -45 70 0 45 -2 48 -40 68 -38 19 -40 23 -40 66 0
25 4 44 8 42 4 -1 43 -21 85 -43z m267 -45 l0 -90 -82 -42 c-46 -24 -87 -44
-91 -46 -4 -2 -6 38 -5 89 l3 93 80 43 c44 23 83 43 88 43 4 0 7 -40 7 -90z"/>
<path d="M280 80 c0 -11 4 -20 9 -20 5 0 7 9 4 20 -3 11 -7 20 -9 20 -2 0 -4
-9 -4 -20z"/>
<path d="M280 45 c0 -6 76 -45 87 -45 10 0 -69 49 -79 50 -5 0 -8 -2 -8 -5z"/>
</g>
</svg>
